<?xml version="1.0" encoding="UTF-8" standalone="no"?>
<!-- Created with Inkscape (http://www.inkscape.org/) -->

<svg
   xmlns:dc="http://purl.org/dc/elements/1.1/"
   xmlns:cc="http://creativecommons.org/ns#"
   xmlns:rdf="http://www.w3.org/1999/02/22-rdf-syntax-ns#"
   xmlns:svg="http://www.w3.org/2000/svg"
   xmlns="http://www.w3.org/2000/svg"
   xmlns:sodipodi="http://sodipodi.sourceforge.net/DTD/sodipodi-0.dtd"
   xmlns:inkscape="http://www.inkscape.org/namespaces/inkscape"
   width="600"
   height="600"
   id="svg2"
   version="1.1"
   inkscape:version="0.48.2 r9819"
   sodipodi:docname="lloydsMethod1.svg">
  <defs
     id="defs4" />
  <sodipodi:namedview
     id="base"
     pagecolor="#ffffff"
     bordercolor="#666666"
     borderopacity="1.0"
     inkscape:pageopacity="0.0"
     inkscape:pageshadow="2"
     inkscape:zoom="0.7"
     inkscape:cx="65.103543"
     inkscape:cy="222.8981"
     inkscape:document-units="px"
     inkscape:current-layer="layer1"
     showgrid="true"
     inkscape:window-width="1631"
     inkscape:window-height="1006"
     inkscape:window-x="1280"
     inkscape:window-y="0"
     inkscape:window-maximized="1">
    <inkscape:grid
       type="xygrid"
       id="grid2987"
       empspacing="5"
       visible="true"
       enabled="true"
       snapvisiblegridlinesonly="true" />
  </sodipodi:namedview>
  <metadata
     id="metadata7">
    <rdf:RDF>
      <cc:Work
         rdf:about="">
        <dc:format>image/svg+xml</dc:format>
        <dc:type
           rdf:resource="http://purl.org/dc/dcmitype/StillImage" />
        <dc:title />
      </cc:Work>
    </rdf:RDF>
  </metadata>
  <g
     inkscape:label="Layer 1"
     inkscape:groupmode="layer"
     id="layer1"
     transform="translate(0,-452.36218)">
    <rect
       style="opacity:1;fill:none;fill-opacity:1;stroke:#000000;stroke-opacity:1;stroke-width:10;stroke-miterlimit:4;stroke-dasharray:none"
       id="rect2985"
       width="600"
       height="600"
       x="0"
       y="0"
       transform="translate(0,452.36218)" />
    <path
       style="fill:none;stroke:#000000;stroke-width:8;stroke-linecap:butt;stroke-linejoin:miter;stroke-opacity:1;stroke-miterlimit:4;stroke-dasharray:none"
       d="M 0,220 300,100 310,70 290,0"
       id="path3862"
       inkscape:connector-curvature="0"
       transform="translate(0,452.36218)" />
    <path
       style="fill:none;stroke:#000000;stroke-width:8;stroke-linecap:butt;stroke-linejoin:miter;stroke-opacity:1;stroke-miterlimit:4;stroke-dasharray:none"
       d="M 310,70 600,10"
       id="path3864"
       inkscape:connector-curvature="0"
       transform="translate(0,452.36218)" />
    <path
       style="fill:none;stroke:#000000;stroke-width:8;stroke-linecap:butt;stroke-linejoin:miter;stroke-opacity:1;stroke-miterlimit:4;stroke-dasharray:none"
       d="m 300,100 80,100 220,0"
       id="path3866"
       inkscape:connector-curvature="0"
       transform="translate(0,452.36218)" />
    <path
       style="fill:none;stroke:#000000;stroke-width:8;stroke-linecap:butt;stroke-linejoin:miter;stroke-opacity:1;stroke-miterlimit:4;stroke-dasharray:none"
       d="M 380,200 20,600"
       id="path3868"
       inkscape:connector-curvature="0"
       transform="translate(0,452.36218)" />
    <g
       id="g3882"
       transform="translate(314,48)">
      <rect
         transform="translate(0,452.36218)"
         y="10"
         x="-190"
         height="50"
         width="10"
         id="rect3878"
         style="fill:#000000;fill-opacity:1;stroke:none" />
      <rect
         transform="translate(0,452.36218)"
         y="30"
         x="-210"
         height="10"
         width="50"
         id="rect3880"
         style="fill:#000000;fill-opacity:1;stroke:none" />
    </g>
    <g
       transform="translate(330,274)"
       id="g3886">
      <rect
         style="fill:#000000;fill-opacity:1;stroke:none"
         id="rect3888"
         width="10"
         height="50"
         x="-190"
         y="10"
         transform="translate(0,452.36218)" />
      <rect
         style="fill:#000000;fill-opacity:1;stroke:none"
         id="rect3890"
         width="50"
         height="10"
         x="-210"
         y="30"
         transform="translate(0,452.36218)" />
    </g>
    <g
       id="g3892"
       transform="translate(574,390)">
      <rect
         transform="translate(0,452.36218)"
         y="10"
         x="-190"
         height="50"
         width="10"
         id="rect3894"
         style="fill:#000000;fill-opacity:1;stroke:none" />
      <rect
         transform="translate(0,452.36218)"
         y="30"
         x="-210"
         height="10"
         width="50"
         id="rect3896"
         style="fill:#000000;fill-opacity:1;stroke:none" />
    </g>
    <g
       transform="translate(660,78)"
       id="g3898">
      <rect
         style="fill:#000000;fill-opacity:1;stroke:none"
         id="rect3900"
         width="10"
         height="50"
         x="-190"
         y="10"
         transform="translate(0,452.36218)" />
      <rect
         style="fill:#000000;fill-opacity:1;stroke:none"
         id="rect3902"
         width="50"
         height="10"
         x="-210"
         y="30"
         transform="translate(0,452.36218)" />
    </g>
    <g
       id="g3904"
       transform="translate(598,-12)">
      <rect
         transform="translate(0,452.36218)"
         y="10"
         x="-190"
         height="50"
         width="10"
         id="rect3906"
         style="fill:#000000;fill-opacity:1;stroke:none" />
      <rect
         transform="translate(0,452.36218)"
         y="30"
         x="-210"
         height="10"
         width="50"
         id="rect3908"
         style="fill:#000000;fill-opacity:1;stroke:none" />
    </g>
    <path
       sodipodi:type="arc"
       style="fill:#b30000;fill-opacity:1;stroke:none"
       id="path3860"
       sodipodi:cx="210"
       sodipodi:cy="50"
       sodipodi:rx="10"
       sodipodi:ry="10"
       d="m 220,50 c 0,5.522847 -4.47715,10 -10,10 -5.52285,0 -10,-4.477153 -10,-10 0,-5.522847 4.47715,-10 10,-10 5.52285,0 10,4.477153 10,10 z"
       transform="matrix(1.2,0,0,1.2,-40,447.36218)" />
    <path
       transform="matrix(1.2,0,0,1.2,128,416.36218)"
       d="m 220,50 c 0,5.522847 -4.47715,10 -10,10 -5.52285,0 -10,-4.477153 -10,-10 0,-5.522847 4.47715,-10 10,-10 5.52285,0 10,4.477153 10,10 z"
       sodipodi:ry="10"
       sodipodi:rx="10"
       sodipodi:cy="50"
       sodipodi:cx="210"
       id="path3870"
       style="fill:#b30000;fill-opacity:1;stroke:none"
       sodipodi:type="arc" />
    <path
       sodipodi:type="arc"
       style="fill:#b30000;fill-opacity:1;stroke:none"
       id="path3872"
       sodipodi:cx="210"
       sodipodi:cy="50"
       sodipodi:rx="10"
       sodipodi:ry="10"
       d="m 220,50 c 0,5.522847 -4.47715,10 -10,10 -5.52285,0 -10,-4.477153 -10,-10 0,-5.522847 4.47715,-10 10,-10 5.52285,0 10,4.477153 10,10 z"
       transform="matrix(1.2,0,0,1.2,144,484.36218)" />
    <path
       transform="matrix(1.2,0,0,1.2,16,578.36218)"
       d="m 220,50 c 0,5.522847 -4.47715,10 -10,10 -5.52285,0 -10,-4.477153 -10,-10 0,-5.522847 4.47715,-10 10,-10 5.52285,0 10,4.477153 10,10 z"
       sodipodi:ry="10"
       sodipodi:rx="10"
       sodipodi:cy="50"
       sodipodi:cx="210"
       id="path3874"
       style="fill:#b30000;fill-opacity:1;stroke:none"
       sodipodi:type="arc" />
    <path
       sodipodi:type="arc"
       style="fill:#b30000;fill-opacity:1;stroke:none"
       id="path3876"
       sodipodi:cx="210"
       sodipodi:cy="50"
       sodipodi:rx="10"
       sodipodi:ry="10"
       d="m 220,50 c 0,5.522847 -4.47715,10 -10,10 -5.52285,0 -10,-4.477153 -10,-10 0,-5.522847 4.47715,-10 10,-10 5.52285,0 10,4.477153 10,10 z"
       transform="matrix(1.2,0,0,1.2,144,688.36218)" />
  </g>
</svg>
